# xmcd
# Track frame offsets:
# 150
# 22125
# 48165
# 61207
# 84240
# 103702
# 131237
# 149432
#
# Disc length: 2148 seconds
# Revision: 0
# Processed by: cddbd v1.4PL0 Copyright (c) Steve Scherf et al.
# Submitted via: VisiTrax 2.9.5.181 - For more info visit www.synapsa.com
#
DISCID=6c086208
DTITLE=Jan Gerfast - Rollin´with the blues
DYEAR=1991
DGENRE=Blues/rock
TTITLE0=I cant resist you
TTITLE1=Shack rattle´n roll
TTITLE2=Come on 4
TTITLE3=Don´t expecct no more
TTITLE4=No one and everyone
TTITLE5=Cadillac
TTITLE6=Tell me
TTITLE7=Du gamla du fria
EXTD=
EXTT0=
EXTT1=
EXTT2=
EXTT3=
EXTT4=
EXTT5=
EXTT6=
EXTT7=
PLAYORDER=
